<svg width="181" height="56" viewBox="0 0 181 56" fill="none" xmlns="http://www.w3.org/2000/svg">
<path d="M28.1719 28.4338L8.57405 48.0316L7.80045 47.258C-2.60015 36.8574 -2.60015 19.9242 7.80045 9.5236L8.57405 8.75L28.1719 28.4338Z" fill="url(#paint0_linear)"/>
<path d="M48.1998 47.258L47.4262 48.0316L27.8284 28.4338L47.4262 8.83594L48.1998 9.60954C58.6004 20.0101 58.6004 36.8574 48.1998 47.258Z" fill="url(#paint1_linear)"/>
<path fill-rule="evenodd" clip-rule="evenodd" d="M102.891 41.8325H109.423L99.9598 15.2251H92.8534L83.1678 41.8325H89.662L91.536 35.9136H100.999L102.891 41.8325ZM96.7684 22.3687L99.6259 31.312H92.8163L95.7108 22.2944C95.9582 21.5275 96.1128 20.7544 96.1747 19.9751H96.3231C96.4097 20.9028 96.5581 21.7007 96.7684 22.3687ZM124.378 41.8325H130.223V22.8325H124.378V33.7056C124.378 34.9673 124.062 35.9692 123.432 36.7114C122.801 37.4412 121.96 37.8062 120.908 37.8062C118.78 37.8062 117.717 36.464 117.717 33.7798V22.8325H111.872V34.2993C111.872 39.6307 114.074 42.2964 118.477 42.2964C120.902 42.2964 122.838 41.1769 124.285 38.938H124.378V41.8325ZM147.905 41.8325H153.768V13.7036H147.905V25.0034H147.831C146.866 23.2469 145.159 22.3687 142.71 22.3687C140.125 22.3687 138.034 23.3149 136.438 25.2075C134.843 27.1001 134.045 29.6174 134.045 32.7593C134.045 35.7651 134.768 38.1092 136.216 39.7915C137.663 41.4614 139.574 42.2964 141.949 42.2964C144.534 42.2964 146.495 41.2697 147.831 39.2163H147.905V41.8325ZM148.016 31.1636V32.5923C148.016 34.1632 147.639 35.425 146.885 36.3774C146.142 37.3299 145.178 37.8062 143.99 37.8062C142.741 37.8062 141.764 37.3547 141.058 36.4517C140.353 35.5487 140.001 34.2622 140.001 32.5923C140.001 30.811 140.366 29.4132 141.096 28.3989C141.825 27.3722 142.84 26.8589 144.139 26.8589C145.289 26.8589 146.223 27.2671 146.94 28.0835C147.658 28.8999 148.016 29.9266 148.016 31.1636ZM159.242 18.9546C159.873 19.536 160.683 19.8267 161.673 19.8267C162.675 19.8267 163.485 19.5422 164.103 18.9731C164.734 18.4041 165.05 17.6743 165.05 16.7837C165.05 15.9054 164.734 15.188 164.103 14.6313C163.485 14.0747 162.675 13.7964 161.673 13.7964C160.683 13.7964 159.873 14.0747 159.242 14.6313C158.611 15.188 158.296 15.9054 158.296 16.7837C158.296 17.6372 158.611 18.3608 159.242 18.9546ZM158.704 41.8325H164.567V22.8325H158.704V41.8325ZM177.073 42.2964C178.817 42.2964 180.122 42.0675 180.988 41.6099V37.2681C180.333 37.6268 179.696 37.8062 179.077 37.8062C177.506 37.8062 176.721 36.8166 176.721 34.8374V27.1558H180.988V22.8325H176.721V17.062L170.876 18.7319V22.8325H167.796V27.1558H170.876V35.8579C170.876 40.1502 172.942 42.2964 177.073 42.2964ZM76.662 19.66C76.806 19.828 77.01 19.912 77.274 19.912H81.594C81.858 19.912 82.086 19.828 82.278 19.66C82.494 19.492 82.626 19.276 82.674 19.012L83.358 15.772C83.382 15.7 83.394 15.628 83.394 15.556C83.394 15.412 83.346 15.268 83.25 15.124C83.106 14.956 82.902 14.872 82.638 14.872H78.318C78.078 14.872 77.85 14.956 77.634 15.124C77.418 15.292 77.286 15.508 77.238 15.772L76.518 19.012C76.494 19.276 76.542 19.492 76.662 19.66ZM72.162 41.08C72.306 41.248 72.51 41.332 72.774 41.332H77.022C77.262 41.332 77.49 41.248 77.706 41.08C77.922 40.912 78.054 40.696 78.102 40.432L81.666 23.512C81.69 23.44 81.702 23.368 81.702 23.296C81.702 23.128 81.654 22.984 81.558 22.864C81.414 22.696 81.222 22.612 80.982 22.612H76.734C76.47 22.612 76.23 22.696 76.014 22.864C75.798 23.032 75.666 23.248 75.618 23.512L72.018 40.432C71.97 40.696 72.018 40.912 72.162 41.08Z" fill="#4F4F4F"/>
<defs>
<linearGradient id="paint0_linear" x1="0.028881" y1="28.4242" x2="28.2037" y2="28.4242" gradientUnits="userSpaceOnUse">
<stop stop-color="#1869B3"/>
<stop offset="1" stop-color="#1EA0CA"/>
</linearGradient>
<linearGradient id="paint1_linear" x1="27.8014" y1="28.4241" x2="55.9762" y2="28.4241" gradientUnits="userSpaceOnUse">
<stop stop-color="#1EA0CA"/>
<stop offset="1" stop-color="#5CBE7C"/>
</linearGradient>
</defs>
</svg>
